<?xml version="1.0" encoding="UTF-8" standalone="no"?>
<svg  
   xmlns:svg="http://www.w3.org/2000/svg"
   xmlns="http://www.w3.org/2000/svg"
   version="1.1"
   viewBox="0 0 15.697619 12.310516">  
  <path
     d="M 7.4521278,0 C 6.637436,0 5.8925321,0.13277135 5.217639,0.39790846 4.5427459,0.6630453 3.9619966,1.0342896 3.4751096,1.5115355 2.9930427,1.9887816 2.6169711,2.5574604 2.3470131,3.2178913 2.0770563,3.873501 1.9423867,4.5942652 1.9423867,5.3800332 c 0,0.37588 0.028669,0.7382489 0.084749,1.0877889 -0.507147,-0.2742319 -1.12051596,-0.2012667 -1.70377197,0.1617471 -0.329419,0.3216342 -0.40558852,0.8174107 -0.23564453,1.2552207 0.50695899,1.18071 2.7808192,1.1810791 3.5517211,2.4778851 0.06405,0.09917 0.096118,0.226419 0.096118,0.381372 0,0.142558 -0.024823,0.277048 -0.074414,0.403076 -0.559815,1.294311 -1.8436334,0.806833 -2.3275064,0.306958 0.157019,0.177679 0.3396169,0.317861 0.5482869,0.421163 0.555602,0.26247 1.3076952,0.201607 1.7823201,-0.235645 0.1198301,-0.11983 0.2108705,-0.260011 0.2728516,-0.421163 0.06405,-0.163217 0.095601,-0.33702 0.095601,-0.520898 0,-0.179746 -0.031551,-0.329238 -0.095601,-0.449068 C 3.875117,10.126573 3.7923522,10.024154 3.6890501,9.9415117 2.7075192,9.1656775 1.0786209,9.2215323 0.38537585,7.7669675 -0.22043914,6.7895713 1.302883,6.488526 2.104134,6.8605629 c 0.052,0.228046 0.1149193,0.450972 0.1922363,0.6671427 0.236213,0.6556113 0.5736613,1.2242897 1.0123413,1.7063558 0.3210861,0.3455165 0.6924479,0.637037 1.1120768,0.8764326 C 4.5812843,9.7349523 4.8074534,9.3567024 5.0806965,9.0061684 5.2816674,8.7483983 5.5044651,8.5104024 5.7395709,8.3023354 5.5669829,8.1839484 5.4074376,8.044594 5.2615641,7.882206 5.0108899,7.5929661 4.8105238,7.2381032 4.6610837,6.8187051 4.5164638,6.3993071 4.4440429,5.9199483 4.4440429,5.3800332 c 0,-0.515811 0.072425,-0.9812033 0.2170408,-1.3957805 C 4.8105238,3.5696757 5.0152005,3.2177431 5.2755166,2.9285033 5.5406527,2.6344433 5.8568914,2.4104549 6.2232623,2.2561928 6.5896324,2.0971118 6.9941584,2.0174476 7.4376585,2.0174479 c 0.255496,0 0.4775864,0.019307 0.6655924,0.057878 0.192826,0.03857 0.3588785,0.086846 0.4986777,0.1446937 0.1446197,0.05303 0.2677356,0.1133788 0.3689697,0.1808676 0.106055,0.06267 0.2026168,0.1230196 0.289388,0.1808676 0.08677,0.05303 0.1683319,0.098898 0.2454629,0.1374592 0.07713,0.03857 0.1592078,0.057878 0.24598,0.057878 0.130157,0 0.2315472,-0.026562 0.3038568,-0.079582 0.07231,-0.05785 0.134559,-0.1206132 0.187586,-0.1881023 l 0.0067,-0.00878 c 0.436321,0.377707 0.649402,0.6917618 0.18035,1.3735597 -0.250019,0.3575931 -0.254542,0.3960694 -0.05788,0.5338175 0.05408,0.03788 0.09045,0.060142 0.123507,0.062012 l 0.223242,0.205672 -0.01189,0.015502 0.159163,0.1224732 c 0.0052,0.004 0.01029,0.00742 0.0155,0.011369 l 0.03824,0.03514 0.0036,-0.00414 c 0.066,0.04684 0.123742,0.080989 0.140043,0.081649 0.02093,8.467e-4 0.182421,-0.2168273 0.359152,-0.4836914 0.298558,-0.4508219 0.453509,-0.8815236 0.46147,-1.2640056 0.0062,-0.2974869 -0.07631,-0.565795 -0.24908,-0.791166 L 10.861221,1.6805161 11.067926,1.4030137 C 10.870278,1.1957256 10.64336,1.0074309 10.387865,0.83870693 10.13237,0.66517704 9.8528582,0.51842405 9.5491562,0.39790713 9.2454572,0.27257004 8.9176617,0.17600797 8.5657537,0.10851912 8.2186656,0.03620902 7.8474216,-1.3229167e-6 7.4521265,-1.3229167e-6 Z M 3.2771891,3.4902261 c 0.3793225,-0.00383 0.7561871,0.1702221 0.9782347,0.5245158 0.044998,0.1019956 0.067179,0.210016 0.067179,0.3240112 0,0.1034954 -0.010523,0.1949053 -0.031523,0.2744017 -0.021,0.077997 -0.05257,0.1461413 -0.094568,0.2046388 -0.040498,0.056997 -0.091465,0.1057463 -0.1529622,0.1462442 -0.059997,0.040498 -0.128709,0.074286 -0.2067057,0.101286 0.3629842,0.1259945 0.5441529,0.3725222 0.5441526,0.7400065 0,0.1739923 -0.031571,0.3257581 -0.094568,0.4547526 -0.062997,0.1289944 -0.1477529,0.235931 -0.2542482,0.3214274 -0.1049954,0.085496 -0.2268921,0.1502884 -0.3663857,0.1937864 -0.1394942,0.041998 -0.2851725,0.063045 -0.436666,0.063045 -0.1559933,0 -0.2945005,-0.016611 -0.4159954,-0.049609 C 2.6916403,6.7542346 2.5836193,6.7016161 2.4891234,6.6311197 2.3946275,6.5591226 2.3110063,6.4677128 2.2390095,6.3567177 2.1685124,6.2457226 2.1070224,6.1138699 2.0545246,5.9608762 L 2.3651,5.8347858 c 0.026999,-0.011999 0.053567,-0.020307 0.079065,-0.024805 0.026999,-0.0045 0.053049,-0.00672 0.078548,-0.00672 0.047998,0 0.090659,0.00944 0.1281575,0.028939 0.038999,0.018 0.068351,0.045133 0.08785,0.081132 0.067497,0.1244947 0.1389438,0.2153373 0.2139405,0.2723349 0.076496,0.055498 0.1656884,0.083199 0.267684,0.083199 0.077997,0 0.145574,-0.012742 0.2025716,-0.03824 0.058497,-0.026999 0.1061619,-0.060787 0.1436605,-0.1012859 0.038998,-0.041998 0.068351,-0.089096 0.08785,-0.1415934 C 3.7930726,5.4629859 3.3182932,5.3603035 2.998653,5.157308 3.7189435,4.8685307 4.3839896,3.4927995 2.7635252,4.4891316 c -0.035998,0.029999 -0.085315,0.044959 -0.1483114,0.044959 -0.014999,0 -0.031609,-5.556e-4 -0.049609,-0.00206 -0.016499,-0.00151 -0.033676,-0.00372 -0.051676,-0.00672 L 2.1449583,4.4601963 C 2.1689574,4.2967034 2.2144037,4.1538104 2.2819009,4.0323156 2.5157262,3.6753564 2.897866,3.4940631 3.2771891,3.4902298 Z m 8.8149659,0.2769857 c -1.993081,3.5850988 -0.785931,3.9698488 0,4.7759357 h 1.107942 V 6.9468626 h 0.576709 c 0.329986,0 0.615375,-0.03915 0.855762,-0.1178224 0.242573,-0.080857 0.442619,-0.1922994 0.599963,-0.3343465 0.157345,-0.1420469 0.273877,-0.3127309 0.350367,-0.5115965 0.07649,-0.1988656 0.114721,-0.4175723 0.114721,-0.655774 0,-0.2207189 -0.0368,-0.4258588 -0.111104,-0.6159831 C 15.512214,4.5212158 15.396078,4.3561415 15.238733,4.2162798 15.083574,4.0764184 14.88496,3.9673233 14.642387,3.8886513 14.401999,3.8077941 14.113348,3.7672118 13.776806,3.7672118 Z M 9.9124427,4.3408203 c -0.3887878,0.0041 -1.2078782,0.8398716 -1.3017291,1.4521076 0,0.02258 0.055095,0.1057098 0.1224729,0.1844847 0.227447,0.2659121 0.8834427,0.7823814 0.993738,0.7823814 0.6145405,-0.3549809 1.1218395,-1.0633313 1.2634885,-1.4794963 0,-0.08726 -0.747613,-0.7582278 -1.0366292,-0.9301758 -0.011081,-0.0066 -0.025352,-0.0095 -0.041341,-0.0093 z m 3.2876543,0.2557981 c 0.765843,0.069647 1.429762,0.4559972 1.19941,1.3079306 -0.126749,0.1376762 -0.334236,0.206189 -0.622701,0.206189 H 13.200097 Z M 8.7300859,6.3396645 c -0.03221,0 -0.5395018,0.8056351 -0.5395018,0.8567952 0,0.0171 0.058268,0.084169 0.1297077,0.1488281 0.123122,0.1114192 0.1505236,0.1005808 0.5250326,-0.2077392 0.217324,-0.1789099 0.3953248,-0.3490553 0.3953248,-0.3782716 0,-0.05079 -0.4488101,-0.4196125 -0.5105633,-0.4196125 z M 7.7017251,7.6599972 c -0.00119,-4.233e-4 -0.00328,-1.177e-4 -0.00568,5.292e-4 -0.023,0.0057 -0.1012077,0.0587 -0.2268593,0.1436605 C 6.2398845,8.6354199 4.8008068,10.49593 4.3308726,11.86182 4.1488449,12.390891 4.1649313,12.426211 4.4414603,12.103149 4.5765684,11.945303 4.9033394,11.705447 5.183017,11.55848 6.0483492,11.103762 6.9977009,10.081601 7.7859589,8.7565837 7.9698128,8.4475374 8.1184214,8.1630839 8.1161713,8.124581 8.1139713,8.086081 8.0747083,8.113095 8.0288383,8.184526 7.5778943,8.8868513 6.7227475,9.8620473 6.3023285,10.153398 5.4236087,10.762351 6.1153554,9.3510853 7.3110525,8.0956422 7.5994896,7.7927921 7.7194704,7.6667079 7.7017264,7.6600097 Z M 8.147176,7.704439 7.9239338,7.9101113 c -0.122909,0.113085 -0.2237592,0.1722498 -0.2237592,0.1312582 0,-0.04099 0.047664,-0.1138158 0.1054201,-0.1617472 0.05775,-0.04793 0.1049031,-0.1171051 0.1049031,-0.153996 0,-0.09011 -0.686225,0.6590972 -0.9275919,1.0128581 C 6.7763558,9.0412106 6.7555516,9.1097559 6.8521644,9.169466 6.9847254,9.2513956 7.6023421,8.586467 8.017468,7.9147621 Z m 1.4815632,0.2206583 c -0.07231,0 -0.1423172,0.016894 -0.2098064,0.050643 -0.06749,0.02893 -0.1297373,0.067554 -0.1875853,0.1157552 C 9.0867273,8.216833 8.9418854,8.3230505 8.7972655,8.4098224 8.3613004,8.8366435 8.0577334,9.9716538 7.4619465,10.756449 8.1726993,10.720649 8.7989572,10.585134 9.3393512,10.347688 9.9804993,10.06327 10.513485,9.643743 10.937703,9.0893674 L 9.9687701,8.0697916 C 9.9157402,8.0167614 9.86022,7.9805529 9.802372,7.9612709 9.7445219,7.93717 9.6865874,7.9250976 9.6287392,7.9250973 Z"
     style="font-style:normal;font-variant:normal;font-weight:900;font-stretch:normal;line-height:1.25;-inkscape-font-specification:'Lato Heavy';letter-spacing:0px;word-spacing:0px;fill:#fff;fill-opacity:1;stroke:none;stroke-width:0.36155"
     id="path833" />
</svg>
